<?xml version="1.0" standalone="no"?>
<!DOCTYPE svg PUBLIC "-//W3C//DTD SVG 20010904//EN"
 "http://www.w3.org/TR/2001/REC-SVG-20010904/DTD/svg10.dtd">
<svg version="1.0" xmlns="http://www.w3.org/2000/svg"
 width="512.000000pt" height="512.000000pt" viewBox="0 0 512.000000 512.000000"
 preserveAspectRatio="xMidYMid meet">
<metadata>
Created by potrace 1.16, written by Peter Selinger 2001-2019
</metadata>
<g transform="translate(0.000000,512.000000) scale(0.100000,-0.100000)"
fill="#000000" stroke="none">
<path d="M2580 3504 c-19 -2 -84 -9 -145 -14 -246 -24 -498 -83 -559 -131 -15
-12 -25 -23 -22 -26 2 -3 -10 -28 -28 -56 -18 -29 -66 -116 -107 -194 l-74
-143 -32 6 c-26 5 -34 2 -48 -20 -16 -24 -16 -28 5 -70 18 -38 19 -48 8 -65
-7 -12 -18 -21 -24 -21 -6 0 -49 -23 -95 -51 -73 -44 -100 -54 -201 -75 -237
-49 -395 -130 -483 -246 -60 -80 -73 -140 -52 -239 8 -41 18 -108 21 -149 4
-42 15 -113 26 -158 26 -108 26 -139 -1 -147 -30 -10 -42 -49 -25 -89 17 -41
49 -65 98 -72 29 -5 39 -13 49 -38 7 -17 35 -52 62 -78 l48 -48 -53 -1 c-29
-1 -64 -4 -78 -8 l-25 -7 25 -7 c57 -14 247 -37 425 -51 463 -37 577 -41 1230
-41 619 0 662 1 693 18 19 10 40 33 47 51 13 31 25 36 262 124 266 99 318 112
458 112 50 0 107 5 128 11 62 17 103 75 127 179 20 85 60 151 106 175 42 22
64 55 64 98 0 39 -15 64 -44 71 -41 10 -58 51 -72 175 -26 225 -54 297 -132
336 -48 24 -119 103 -129 144 -3 14 -28 103 -55 196 -28 94 -56 193 -64 220
-28 102 -183 216 -368 269 -158 46 -276 58 -616 61 -173 2 -331 1 -350 -1z
m778 -38 c233 -38 368 -96 472 -203 36 -36 59 -62 51 -58 -10 6 -13 4 -9 -6
17 -42 17 -50 -1 -19 -63 114 -208 169 -461 175 -74 2 -180 12 -235 22 -85 15
-157 18 -480 18 -391 0 -544 -11 -733 -51 -96 -21 -109 -14 -38 20 97 46 339
93 593 116 164 14 721 5 841 -14z m-263 -102 c66 -8 152 -18 191 -21 l71 -5
-13 -37 c-6 -20 -17 -124 -24 -231 -12 -203 -35 -428 -44 -438 -3 -3 -74 -13
-158 -23 -84 -9 -186 -24 -226 -33 -40 -9 -83 -16 -95 -16 -21 1 -20 2 4 15
15 8 105 28 200 45 203 35 229 44 229 74 0 55 -71 86 -275 121 -210 36 -374
48 -641 49 l-241 1 15 23 c14 21 20 22 171 22 181 0 482 -11 463 -18 -6 -2
-12 -11 -12 -19 0 -11 5 -13 18 -8 40 18 77 15 245 -15 96 -17 188 -30 203
-28 58 7 78 73 90 288 6 110 5 116 -18 150 -14 21 -38 40 -59 47 -155 51 -833
55 -1129 7 -155 -25 -148 -19 -239 -206 -43 -90 -81 -173 -84 -186 -8 -36 19
-55 67 -48 77 12 211 26 244 26 l32 0 -20 -20 c-16 -16 -42 -22 -123 -30 -114
-12 -287 -39 -302 -48 -5 -3 -4 1 3 10 7 9 55 101 107 205 135 270 146 287
192 301 46 14 215 39 338 51 162 15 687 12 820 -5z m523 -50 c131 -29 215 -87
259 -179 12 -25 19 -32 26 -23 5 8 6 4 2 -11 -5 -16 -4 -21 4 -17 7 5 8 1 4
-10 -5 -13 -3 -15 7 -9 8 5 11 4 7 -2 -3 -5 3 -34 14 -63 31 -83 16 -68 -20
19 -66 161 -128 229 -227 251 -34 8 -36 7 -30 -13 5 -19 52 -227 100 -437 11
-51 14 -55 46 -62 19 -3 -10 -4 -65 -1 -109 6 -139 13 -57 13 48 0 52 2 52 24
0 24 -98 478 -105 484 -11 11 -90 22 -162 22 -77 0 -84 -2 -99 -25 -10 -15
-19 -60 -24 -117 l-7 -93 -2 71 c-1 80 13 170 31 191 13 16 144 10 246 -13z
m-1085 -35 c-6 -6 -7 3 -4 23 4 28 6 29 9 9 2 -13 0 -27 -5 -32z m-685 -19
c-32 -51 -48 -68 -27 -27 15 28 49 77 54 77 2 0 -10 -22 -27 -50z m1650 23
c-21 -2 -55 -2 -75 0 -21 2 -4 4 37 4 41 0 58 -2 38 -4z m-846 -38 c22 -48 8
-55 -107 -55 -95 0 -105 2 -105 18 0 38 24 55 68 49 29 -3 42 -1 42 7 0 7 16
10 46 8 36 -3 48 -9 56 -27z m941 28 c-7 -2 -19 -2 -25 0 -7 3 -2 5 12 5 14 0
19 -2 13 -5z m-1493 -15 c0 -7 -11 -71 -25 -143 -14 -71 -25 -139 -25 -150 0
-19 -10 -23 -112 -38 -61 -9 -113 -15 -115 -13 -6 6 118 315 134 336 4 4 80
16 121 19 12 0 22 -5 22 -11z m1530 2 c0 -5 -2 -10 -4 -10 -3 0 -8 5 -11 10
-3 6 -1 10 4 10 6 0 11 -4 11 -10z m-1380 -16 c38 -8 74 -22 81 -30 9 -11 7
-39 -6 -128 l-18 -113 -76 -7 c-42 -3 -89 -9 -105 -12 -16 -4 -27 -3 -24 2 3
5 18 75 33 157 15 81 32 147 37 147 5 0 40 -7 78 -16z m-336 -56 c-9 -18 -40
-89 -68 -157 -28 -68 -58 -126 -66 -128 -10 -3 -11 -2 -4 4 6 4 14 22 17 38 6
34 128 287 134 281 3 -2 -3 -19 -13 -38z m-134 -48 c-17 -33 -33 -60 -35 -60
-3 0 8 27 25 60 17 33 33 60 35 60 3 0 -8 -27 -25 -60z m1610 -51 c5 -57 12
-123 16 -146 5 -43 5 -43 -26 -43 -31 0 -32 1 -26 38 3 20 8 88 12 150 3 62 8
111 10 109 2 -2 8 -50 14 -108z m-184 19 c-3 -46 -9 -100 -12 -121 l-7 -39
-56 5 c-31 2 -74 11 -96 20 -51 20 -160 21 -215 2 -75 -26 -104 -21 -139 27
-73 98 -46 151 81 163 60 6 221 15 417 23 l34 2 -7 -82z m399 72 c7 -11 65
-294 65 -316 0 -10 -13 -14 -40 -14 -27 0 -40 4 -40 13 0 8 -9 22 -20 32 -16
15 -30 17 -80 12 -56 -6 -60 -5 -65 16 -4 22 -25 228 -25 254 0 10 23 13 99
13 56 0 103 -4 106 -10z m159 -10 c14 -5 39 -28 55 -50 29 -41 113 -229 125
-284 7 -28 7 -28 -31 -22 -21 4 -60 10 -87 14 -45 6 -51 10 -57 37 -4 17 -19
84 -33 150 -15 66 -31 130 -36 143 -8 19 -7 22 15 22 13 0 35 -4 49 -10z
m-1336 -57 c22 -32 49 -77 61 -100 l21 -43 -81 0 -81 0 6 28 c3 15 8 52 11 82
7 59 14 90 20 90 2 0 22 -26 43 -57z m793 -163 c-12 -86 -22 -101 -70 -98
l-36 1 38 4 c46 5 52 18 63 134 5 46 10 72 12 57 2 -15 -1 -59 -7 -98z m117
-50 l-5 -150 151 0 c221 0 282 -7 294 -35 l10 -22 -210 -5 c-146 -4 -213 -10
-221 -18 -9 -10 -7 -11 10 -6 12 4 114 8 228 8 198 2 206 1 227 -19 l21 -22
-272 -1 -273 -1 6 38 c12 71 25 238 26 311 0 39 3 72 6 72 4 0 5 -67 2 -150z
m-1625 115 c-3 -9 -8 -14 -10 -11 -3 3 -2 9 2 15 9 16 15 13 8 -4z m-20 -40
c-3 -9 -8 -14 -10 -11 -3 3 -2 9 2 15 9 16 15 13 8 -4z m1337 -21 l35 -14 -44
6 c-24 4 -77 7 -118 7 -43 0 -68 4 -61 8 21 14 150 9 188 -7z m-717 -1 c-7 -2
-19 -2 -25 0 -7 3 -2 5 12 5 14 0 19 -2 13 -5z m-105 -10 c-10 -2 -26 -2 -35
0 -10 3 -2 5 17 5 19 0 27 -2 18 -5z m-115 -10 c-7 -2 -19 -2 -25 0 -7 3 -2 5
12 5 14 0 19 -2 13 -5z m-467 -17 c3 -8 0 -24 -6 -36 -9 -17 -14 -19 -26 -9
-15 12 -19 41 -7 52 11 12 33 8 39 -7z m407 7 c-7 -2 -19 -2 -25 0 -7 3 -2 5
12 5 14 0 19 -2 13 -5z m989 -7 c40 -8 89 -22 108 -31 l35 -16 -35 7 c-19 4
-93 17 -165 30 -113 19 -123 23 -73 23 31 1 89 -5 130 -13z m148 -6 c0 -5 -2
-10 -4 -10 -3 0 -8 5 -11 10 -3 6 -1 10 4 10 6 0 11 -4 11 -10z m338 -41 c2
-11 -6 -19 -22 -23 -13 -3 -31 -9 -40 -12 -12 -5 -16 0 -16 19 0 14 6 28 13
31 24 10 62 1 65 -15z m-818 -39 c150 -14 347 -47 426 -71 99 -31 124 -70 57
-88 -48 -12 -403 -68 -508 -79 -52 -6 -164 -4 -315 4 -299 16 -350 22 -378 41
l-24 15 24 25 c12 14 53 43 90 65 64 38 78 58 40 58 -30 0 -154 -65 -226 -119
-38 -28 -85 -56 -105 -61 -20 -6 -110 -17 -201 -24 -208 -17 -236 -7 -165 59
45 43 205 121 286 139 84 19 208 35 344 46 131 10 494 5 655 -10z m700 -30
c-19 -13 -30 -13 -30 0 0 6 10 10 23 10 18 0 19 -2 7 -10z m120 -20 c18 -5 9
-7 -34 -8 -40 0 -55 2 -45 9 16 10 44 10 79 -1z m97 -6 c-3 -3 -12 -4 -19 -1
-8 3 -5 6 6 6 11 1 17 -2 13 -5z m-1595 -43 c-76 -49 -92 -75 -64 -103 25 -26
106 -36 412 -51 194 -10 261 -10 324 0 44 7 81 11 83 9 3 -3 -18 -14 -102 -51
-72 -32 -118 -73 -153 -140 -22 -41 -26 -63 -27 -125 0 -88 22 -137 81 -190
50 -43 93 -60 154 -60 61 0 106 18 140 55 l25 28 -44 -29 c-59 -38 -150 -45
-207 -16 -81 42 -122 99 -131 186 -11 103 39 195 137 254 59 35 72 39 64 19
-15 -40 75 -46 108 -7 33 38 216 73 443 86 122 7 126 6 150 -16 14 -13 34 -48
45 -78 37 -99 51 -370 29 -585 -8 -80 -8 -116 1 -142 20 -62 35 -63 195 -11
162 53 189 73 212 158 32 114 25 473 -12 658 -3 14 2 6 9 -17 50 -147 47 -606
-4 -704 -7 -13 -20 -33 -29 -45 -9 -11 -2 -6 15 12 39 38 51 90 65 268 13 175
-9 433 -43 501 -6 11 -22 33 -37 48 l-26 28 55 -6 c75 -9 211 -41 257 -60 94
-39 114 -95 147 -407 1 -16 2 -28 1 -28 0 0 -20 18 -43 40 -79 73 -163 61
-208 -30 -28 -56 -46 -175 -43 -287 l2 -87 -89 -32 c-49 -17 -141 -50 -204
-73 -63 -22 -123 -46 -133 -52 -11 -6 -21 -8 -24 -5 -3 3 -12 -1 -20 -9 -16
-17 -38 -20 -28 -6 3 6 -16 3 -42 -6 -56 -19 -71 -29 -28 -19 22 5 26 4 15 -4
-28 -18 -41 -10 -62 37 -18 41 -20 59 -15 143 8 114 -13 288 -38 326 -14 22
-22 25 -48 20 -69 -14 -125 -107 -192 -317 -52 -162 -50 -159 -82 -159 -16 0
-38 3 -51 6 -22 6 -22 6 8 40 21 25 43 75 76 182 61 192 83 240 128 280 39 34
80 41 119 21 22 -12 22 -12 3 10 -23 25 -56 27 -103 4 -55 -26 -90 -84 -134
-227 -53 -169 -65 -202 -97 -256 -15 -25 -26 -48 -25 -51 3 -10 -201 -20 -249
-13 -40 7 -67 26 -68 48 0 5 44 6 102 2 57 -4 100 -4 96 -1 -3 3 -50 9 -103
13 -72 5 -100 11 -106 22 -4 8 -28 58 -52 110 -67 141 -113 181 -228 199 -180
28 -1029 43 -1100 20 -83 -28 -132 -97 -165 -231 l-17 -68 -82 0 c-143 0 -141
-2 -164 99 -11 47 -23 120 -27 161 l-7 75 29 -26 c49 -45 88 -59 162 -59 58 0
75 4 113 29 52 33 75 74 91 161 12 71 -2 198 -27 236 -20 30 -73 64 -100 64
-15 -1 -11 -6 15 -19 56 -30 79 -62 91 -127 23 -121 -8 -249 -72 -295 -40 -28
-137 -38 -194 -19 -121 40 -168 186 -99 306 31 55 139 153 175 161 16 3 29 9
29 13 0 13 134 67 221 88 122 30 152 32 157 7 8 -38 22 -45 91 -44 118 0 325
25 359 41 37 19 38 18 16 -23 -27 -53 -8 -43 32 16 38 58 97 109 169 145 64
32 63 23 -3 -19z m1978 14 c0 -10 -9 -15 -27 -14 -24 2 -25 2 -5 6 12 2 22 9
22 14 0 5 2 9 5 9 3 0 5 -7 5 -15z m-72 -2 c-10 -2 -28 -2 -40 0 -13 2 -5 4
17 4 22 1 32 -1 23 -4z m0 -23 c83 -10 109 -17 130 -35 15 -13 25 -25 22 -28
-3 -2 -39 2 -80 9 -41 8 -100 17 -131 20 -48 4 -58 9 -68 30 -10 22 -9 25 6
21 10 -3 65 -11 121 -17z m-51 -127 c0 -16 7 -94 16 -175 27 -240 18 -447 -24
-535 -24 -49 -56 -66 -208 -112 -125 -37 -137 -38 -147 -8 -5 12 -8 166 -9
342 0 310 -1 322 -23 386 -13 37 -35 78 -48 93 l-25 26 169 0 c111 0 172 -4
179 -11 19 -19 94 -16 107 4 14 22 13 22 13 -10z m-49 10 c-10 -2 -26 -2 -35
0 -10 3 -2 5 17 5 19 0 27 -2 18 -5z m-1038 -83 c0 -5 -9 -10 -21 -10 -11 0
-17 5 -14 10 3 6 13 10 21 10 8 0 14 -4 14 -10z m1419 -294 c47 -25 55 -41 26
-54 -35 -16 -80 -114 -107 -234 l-22 -97 -44 -16 -45 -15 6 143 c6 153 21 216
62 261 28 30 79 35 124 12z m111 -102 c28 -26 37 -40 30 -48 -5 -7 -16 -40
-24 -73 -7 -34 -17 -67 -21 -73 -7 -12 -67 -40 -139 -66 l-38 -14 7 48 c10 65
50 190 75 230 27 43 59 42 110 -4z m78 -67 c3 -12 -3 -17 -22 -17 -25 0 -35
18 -19 34 12 12 38 2 41 -17z m-2318 -18 c217 -12 289 -22 339 -47 46 -24 109
-116 148 -219 48 -125 48 -121 19 -129 -45 -11 -56 0 -56 58 0 34 -8 71 -24
103 -45 98 -121 149 -247 164 -125 16 -593 33 -787 29 l-184 -3 -33 -36 c-22
-25 -37 -55 -45 -92 -9 -38 -17 -54 -26 -50 -22 8 -52 -33 -59 -81 -7 -45 -8
-46 -42 -46 -28 0 -34 3 -29 16 4 9 14 49 22 88 26 115 51 171 94 209 39 36
60 42 170 51 71 5 537 -4 740 -15z m2310 -33 c0 -22 -37 -62 -48 -51 -2 2 1
20 8 39 13 41 40 49 40 12z m-2385 -37 c249 -12 327 -21 362 -44 46 -30 88
-170 58 -195 -13 -10 -15 -9 -15 9 0 14 4 20 12 15 8 -5 9 -2 3 12 -4 10 -12
38 -17 61 -14 60 -61 100 -130 107 -114 13 -396 27 -675 33 l-292 6 -34 -34
c-63 -63 -57 -192 10 -202 27 -4 27 -4 2 -6 -38 -2 -60 20 -66 66 -12 89 29
166 97 183 39 10 351 5 685 -11z m-482 -46 c-7 -2 -21 -2 -30 0 -10 3 -4 5 12
5 17 0 24 -2 18 -5z m565 -20 c-21 -2 -57 -2 -80 0 -24 2 -7 4 37 4 44 0 63
-2 43 -4z m245 -10 c-7 -2 -21 -2 -30 0 -10 3 -4 5 12 5 17 0 24 -2 18 -5z
m157 -95 c21 -49 29 -116 16 -137 -4 -6 -27 -11 -52 -11 -36 0 -44 3 -44 18 0
10 12 29 26 41 23 20 26 28 20 67 -3 24 -15 63 -27 87 l-21 42 30 -29 c17 -15
40 -51 52 -78z m1790 86 c0 -22 -28 -46 -77 -64 -368 -140 -854 -313 -860
-306 -15 14 287 136 632 256 140 48 267 99 280 111 10 10 25 12 25 3z m-1054
-36 c22 -43 31 -212 15 -289 -12 -59 -42 -102 -65 -93 -10 4 -6 12 14 33 52
52 64 259 20 346 -10 19 -14 35 -9 35 5 0 16 -15 25 -32z m-1708 15 c-16 -2
-40 -2 -55 0 -16 2 -3 4 27 4 30 0 43 -2 28 -4z m230 -10 c-10 -2 -26 -2 -35
0 -10 3 -2 5 17 5 19 0 27 -2 18 -5z m1450 -30 c11 -27 16 -67 17 -133 0 -87
-3 -100 -29 -147 -31 -56 -40 -63 -50 -37 -11 27 -7 42 11 40 29 -2 53 60 53
138 0 105 -34 176 -50 105 -4 -15 -8 -20 -13 -12 -9 15 18 83 33 83 6 0 18
-17 28 -37z m-1830 0 c-21 -2 -55 -2 -75 0 -21 2 -4 4 37 4 41 0 58 -2 38 -4z
m260 -10 c-15 -2 -42 -2 -60 0 -18 2 -6 4 27 4 33 0 48 -2 33 -4z m285 -10
c-13 -2 -35 -2 -50 0 -16 2 -5 4 22 4 28 0 40 -2 28 -4z m2296 -20 c-11 -29
-37 -63 -49 -63 -15 0 4 62 23 75 31 22 38 18 26 -12z m-3026 -35 c-5 -24 -8
-96 -8 -161 1 -136 -12 -125 -22 18 -7 110 2 185 23 185 11 0 13 -9 7 -42z
m234 26 c-3 -3 -12 -4 -19 -1 -8 3 -5 6 6 6 11 1 17 -2 13 -5z m959 -26 c-3
-18 -8 -100 -12 -181 -7 -140 -15 -177 -35 -146 -19 30 -3 295 21 339 17 32
33 24 26 -12z m1764 16 c0 -8 -5 -12 -10 -9 -6 4 -8 11 -5 16 9 14 15 11 15
-7z m-2367 -1 c-13 -2 -35 -2 -50 0 -16 2 -5 4 22 4 28 0 40 -2 28 -4z m-782
-21 c44 -7 46 -8 37 -31 -8 -23 -10 -24 -99 -18 -50 3 -92 7 -94 9 -1 2 -5 15
-8 29 l-6 25 62 -4 c34 -2 83 -7 108 -10z m1082 11 c-13 -2 -35 -2 -50 0 -16
2 -5 4 22 4 28 0 40 -2 28 -4z m1102 -69 c-4 -21 -12 -34 -21 -34 -12 0 -14 7
-9 33 4 17 12 43 18 57 l11 25 4 -24 c2 -13 1 -39 -3 -57z m-1657 39 c-32 -2
-84 -2 -115 0 -32 2 -6 3 57 3 63 0 89 -1 58 -3z m52 -34 c162 -6 389 -14 505
-18 189 -5 210 -8 213 -23 3 -16 -5 -18 -65 -18 -88 0 -768 29 -898 38 -93 7
-100 9 -103 29 -3 20 -1 22 25 13 15 -5 161 -14 323 -21z m168 24 c-27 -2 -69
-2 -95 0 -27 2 -5 3 47 3 52 0 74 -1 48 -3z m422 -13 c144 -6 145 -6 35 -7
-60 0 -175 3 -255 7 -144 6 -145 6 -35 7 61 0 175 -3 255 -7z m-1183 -37 l133
-6 0 -25 0 -25 -112 6 c-101 5 -209 25 -224 40 -15 14 10 29 39 23 17 -4 91
-9 164 -13z m888 -43 c165 -6 328 -13 363 -16 57 -5 62 -7 62 -30 0 -23 -2
-24 -77 -24 -249 0 -965 41 -982 56 -2 2 -1 11 3 20 6 15 22 16 169 11 89 -3
297 -11 462 -17z m1195 -5 c40 -21 41 -59 2 -79 -67 -35 -340 -55 -544 -41
l-108 7 0 32 0 32 238 1 c148 0 248 5 267 11 24 9 9 10 -74 6 -158 -9 -431 5
-431 22 0 11 51 14 283 17 155 1 295 3 310 5 15 1 41 -5 57 -13z m-2221 -10
c19 -4 87 -10 150 -14 113 -6 116 -7 119 -30 l4 -24 -84 7 c-141 11 -207 26
-236 53 -23 20 -24 23 -7 19 11 -2 35 -8 54 -11z m554 -40 c178 -18 412 -32
680 -41 163 -5 207 -10 207 -20 0 -11 -26 -13 -127 -10 -126 4 -120 2 44 -10
l82 -6 13 -41 c11 -36 17 -42 45 -45 33 -3 63 25 63 59 0 15 27 17 278 22 270
4 310 9 397 43 l20 7 -20 -23 c-44 -51 -144 -73 -375 -86 -89 -4 -142 -12
-185 -28 -57 -20 -77 -21 -365 -20 -305 1 -477 10 -750 40 -157 18 -180 24
-180 54 0 44 18 55 81 52 57 -4 59 -5 59 -32 0 -36 7 -40 75 -47 63 -7 74 5
58 60 l-9 32 -115 6 c-63 3 -120 9 -127 13 -10 6 -6 36 4 36 3 0 69 -7 147
-15z m-281 -54 c4 -3 10 -18 13 -33 7 -27 5 -28 -29 -28 -58 0 -121 19 -149
46 -15 14 -27 26 -27 27 0 6 185 -5 192 -12z"/>
<path d="M1793 2773 c26 -2 67 -2 90 0 23 2 2 3 -48 3 -49 0 -68 -1 -42 -3z"/>
<path d="M1296 2609 c-84 -66 -138 -322 -86 -406 11 -18 30 -35 42 -37 13 -3
258 -7 545 -10 l521 -5 33 22 c34 23 79 81 78 101 0 6 -8 0 -17 -14 -32 -47
-69 -78 -105 -88 -23 -7 -111 -7 -254 -1 -120 6 -344 9 -498 7 -154 -1 -289 1
-301 5 -31 11 -44 49 -44 130 0 119 32 211 98 280 39 40 31 50 -12 16z"/>
<path d="M2529 2532 c-63 -40 -103 -90 -154 -192 -63 -126 -59 -124 -301 -115
l-193 7 -46 54 c-43 50 -50 54 -90 54 -43 0 -58 -12 -126 -97 -6 -9 -41 -13
-102 -14 -51 -1 -103 -5 -117 -10 -19 -6 -14 -7 20 -4 38 4 243 6 330 3 14 0
45 0 70 2 25 1 128 -3 230 -9 193 -11 247 -6 281 25 11 10 40 57 65 104 44 87
114 169 167 196 27 14 35 24 19 24 -4 0 -28 -13 -53 -28z m-727 -231 c16 -15
12 -16 -56 -16 -62 0 -72 2 -63 14 27 33 86 34 119 2z m23 -42 c4 -6 4 -13 1
-16 -9 -9 -143 -10 -151 -1 -17 17 12 28 75 28 38 0 72 -5 75 -11z"/>
<path d="M2589 2403 c-50 -45 -69 -86 -69 -150 0 -98 70 -180 164 -190 62 -7
108 11 154 61 113 123 20 316 -151 316 -52 0 -61 -3 -98 -37z m158 6 c60 -23
112 -100 113 -167 0 -86 -74 -153 -166 -151 l-49 2 45 6 c55 8 82 22 111 58
16 21 20 23 16 8 -7 -20 -7 -20 8 -1 18 24 18 22 0 92 -27 102 -73 144 -160
144 -36 0 -46 3 -35 10 20 13 82 13 117 -1z m-9 -51 c39 -32 -16 -73 -89 -66
-60 6 -78 20 -58 44 33 40 110 51 147 22z m38 -116 c18 -12 -18 -65 -57 -84
-64 -33 -127 -21 -154 31 -18 36 -10 40 73 42 31 1 71 5 87 9 17 4 32 8 35 9
3 0 10 -3 16 -7z"/>
<path d="M822 2374 c-53 -32 -72 -68 -72 -140 0 -103 64 -174 163 -181 100 -8
167 54 167 155 0 154 -134 241 -258 166z m144 -5 c26 -12 48 -32 56 -49 7 -16
15 -27 18 -25 11 7 -6 -131 -20 -155 -8 -14 -13 -28 -12 -32 1 -4 -10 -5 -24
-2 -14 3 -23 1 -21 -3 3 -4 -9 -9 -26 -10 -34 -3 -34 -3 37 43 l29 18 -12 -22
c-18 -34 -3 -26 19 11 58 94 -11 226 -118 228 -36 0 -42 3 -27 9 32 14 56 11
101 -11z m-36 -24 c44 -23 42 -61 -4 -69 -52 -10 -118 3 -114 23 3 15 63 61
80 61 5 0 22 -7 38 -15z m135 -151 c-3 -17 -12 -39 -21 -50 -15 -18 -15 -18
-5 3 6 12 11 46 12 75 0 46 2 50 10 28 6 -14 8 -39 4 -56z m-92 5 c-25 -45
-70 -71 -115 -67 -31 3 -35 1 -25 -11 9 -12 9 -13 -1 -7 -17 10 -44 65 -39 79
4 12 103 33 165 36 l33 1 -18 -31z"/>
<path d="M816 1924 c-19 -19 -21 -64 -3 -88 19 -25 89 -33 110 -11 23 22 22
78 -1 98 -23 21 -86 22 -106 1z m47 -21 c-7 -2 -19 -2 -25 0 -7 3 -2 5 12 5
14 0 19 -2 13 -5z"/>
<path d="M2707 1892 c-22 -25 -21 -64 2 -93 16 -20 28 -24 76 -24 44 0 60 4
71 19 21 29 17 70 -9 94 -31 29 -116 31 -140 4z m76 -9 c-7 -2 -21 -2 -30 0
-10 3 -4 5 12 5 17 0 24 -2 18 -5z"/>
<path d="M1898 1503 c6 -2 18 -2 25 0 6 3 1 5 -13 5 -14 0 -19 -2 -12 -5z"/>
</g>
</svg>